<svg id="Camada_1" data-name="Camada 1" xmlns="http://www.w3.org/2000/svg" xmlns:xlink="http://www.w3.org/1999/xlink" viewBox="0 0 2917.31 467.12"><defs><style>.cls-1{font-size:313.33px;fill:#fff;font-family:GillSansMT-Bold, Gill Sans MT;font-weight:700;}.cls-2{letter-spacing:0.21em;}.cls-3,.cls-4{fill:#3f9bff;}.cls-3{font-family:GillSansMT, Gill Sans MT;font-weight:400;letter-spacing:0.22em;}</style><symbol id="techdinner_horizontal_light" data-name="techdinner horizontal light" viewBox="0 0 2756.42 363.56"><text class="cls-1" transform="translate(0 263.5)">TEC<tspan class="cls-2" x="665.82" y="0">H</tspan><tspan class="cls-3" x="992.62" y="0">ORDER</tspan></text><path class="cls-4" d="M2623,305c-41.65-12.93-80.79-32.17-121.09-48.49-17.59-7.12-27.15-21.87-29.42-40.64-1-8.1-.16-16.42-.16-25.52,3,.78,4.51,1.07,6,1.59q60.24,21.47,120.5,42.88c3.72,1.32,4.69,3,5,7,.52,7.46,1.32,15.23,3.95,22.13,6.67,17.53,27,23.47,42.72,13.17a50,50,0,0,0,19-22.67c6-14.44,11.25-29.25,16.09-44.14,15-46.15,29.67-92.41,44.45-138.63,2.74-8.55,2.49-8.92-6.11-10.32l-129.56-21c-8.56-1.39-8.57-1.37-11.14,6.66q-20.51,64.07-41.06,128.11a26.88,26.88,0,0,1-3.92,7.83c-3.09,4.11-7.31,5.68-12.21,3.22-4.55-2.28-5.17-6.4-4.37-10.9a34.77,34.77,0,0,1,1.38-4.78Q2546.86,97,2570.84,23.62c.78-2.38,2.24-4.55,3.38-6.82h5.54a24.83,24.83,0,0,0,3.58,1.15q58.18,9.47,116.38,18.89,23.76,3.87,47.51,7.88c8.81,1.49,10.72,4.81,8.1,13.57-.21.71-.39,1.43-.6,2.14C2738.88,112.67,2723.32,165,2707,217.1A417.9,417.9,0,0,1,2688.13,266c-5.63,12.35-14.58,22.93-26.68,29.6-7.47,4.12-16,6.33-24,9.39Z"/><path class="cls-4" d="M2679.22,158.49c.16,7.55-6.49,13.76-13.52,11.94-17.31-4.49-34.52-9.39-51.67-14.46-5.92-1.75-8.84-8.07-7.25-13.76,1.68-6,7.55-9.92,13.67-8.29,16.92,4.5,33.77,9.31,50.61,14.14C2676.25,149.55,2678.76,153.47,2679.22,158.49Z"/><path class="cls-4" d="M2635.87,86.39c8.93,2.08,19.33,4.49,29.72,6.93,6.63,1.55,13.27,3.08,19.88,4.75,7.79,2,11.49,7.27,9.91,14s-7.37,9.92-15,8.15c-16.14-3.75-32.29-7.51-48.39-11.44-6.59-1.62-10.06-7-9-13.15C2623.83,90.19,2628.6,86.33,2635.87,86.39Z"/><path class="cls-4" d="M2602.41,179.26c.84.18,2.13.35,3.36.71,15.54,4.57,31.17,8.91,46.55,14,3.43,1.13,7.46,4.26,8.61,7.42s-.16,8-2,11.11c-2.26,3.92-6.9,4.82-11.33,3.54-16.63-4.8-33.24-9.63-49.78-14.72a11,11,0,0,1-7.79-13.41C2591.35,182.47,2596.3,178.89,2602.41,179.26Z"/><path class="cls-4" d="M2597.07,136.53a11.4,11.4,0,1,1-11-11.61A11.41,11.41,0,0,1,2597.07,136.53Z"/><path class="cls-4" d="M2568.52,168.7a11.35,11.35,0,1,1-.32,22.7,11.35,11.35,0,0,1,.32-22.7Z"/><path class="cls-4" d="M2601.16,100a11.29,11.29,0,0,1-11.54-11,11.12,11.12,0,0,1,10.79-11.64,11.32,11.32,0,0,1,11.84,11.23A11.19,11.19,0,0,1,2601.16,100Z"/></symbol></defs><use width="2756.42" height="363.56" transform="translate(71.51 53.57)" xlink:href="#techdinner_horizontal_light"/></svg>