<svg id="Camada_1" data-name="Camada 1" xmlns="http://www.w3.org/2000/svg" viewBox="0 0 2938.11 2938.11"><defs><style>.cls-1{fill:#1e272e;}.cls-2{fill:#1f4d80;}</style></defs><path class="cls-1" d="M1700.06,167.21V434.92H1170.9V1628.14H807V434.92H277.82V167.21Z"/><path class="cls-2" d="M986,1763.25q227.65,0,379.11,144.15t151.43,361.44q0,217.27-152.84,359.67t-385.43,142.4q-222.06,0-370-142.4T460.33,2271.65q0-220.08,149-364.25T986,1763.25Zm5.62,133.6q-168.62,0-277.15,105.48T605.89,2271.65q0,158.92,108.89,264.39t272.58,105.48q164.39,0,274.34-107.59t110-267.91q0-156.11-110-262.64T991.58,1896.85Z"/><path class="cls-1" d="M2016.24,1965c-201.09-62.42-390-155.34-584.58-234.09-84.93-34.37-131.06-105.61-142-196.18-4.73-39.13-.8-79.3-.8-123.25,14.32,3.77,21.8,5.17,28.88,7.69q290.8,103.6,581.7,207c18,6.34,22.63,14.37,24,33.71,2.52,36,6.39,73.52,19.08,106.84,32.21,84.6,130.4,113.28,206.25,63.55,41.44-27.17,72.85-64.8,91.45-109.45,29.05-69.72,54.33-141.19,77.69-213.06,72.44-222.79,143.24-446.12,214.61-669.27,13.21-41.27,12-43-29.5-49.77Q2190.27,738,1877.53,687.36c-41.3-6.68-41.39-6.6-53.79,32.15q-99,309.25-198.18,618.47c-4.29,13.3-10.62,26.67-19,37.79-14.91,19.85-35.27,27.44-58.93,15.56-21.94-11-25-30.89-21.09-52.64,1.4-7.84,4.16-15.47,6.64-23.08q115.46-354.49,231.22-708.89c3.77-11.52,10.79-22,16.3-32.94h26.76c5.75,1.88,11.37,4.57,17.27,5.53q280.89,45.75,561.82,91.22,114.73,18.66,229.35,38c42.56,7.23,51.76,23.23,39.11,65.55-1,3.41-1.86,6.88-2.9,10.29-76.49,252.2-151.6,504.82-230.29,756.34-25.15,80.36-56.23,159.39-91.2,236-27.2,59.63-70.38,110.69-128.82,142.92-36,19.88-77.17,30.53-116,45.33Z"/><path class="cls-1" d="M2287.65,1257.78c.77,36.45-31.35,66.46-65.31,57.65-83.56-21.67-166.64-45.31-249.42-69.8-28.58-8.46-42.69-39-35-66.44,8.11-29,36.46-47.89,66-40,81.71,21.76,163,44.94,244.33,68.29C2273.31,1214.65,2285.39,1233.56,2287.65,1257.78Z"/><path class="cls-1" d="M2078.34,909.73c43.13,10,93.32,21.67,143.48,33.43,32,7.52,64.09,14.91,96,22.94,37.61,9.48,55.49,35.11,47.84,67.48s-35.6,47.92-72.54,39.35c-77.94-18.1-155.87-36.24-233.59-55.24-31.85-7.78-48.61-33.65-43.65-63.45C2020.22,928.07,2043.25,909.43,2078.34,909.73Z"/><path class="cls-1" d="M1916.85,1358.07c4.05.84,10.26,1.68,16.2,3.42,75,22.07,150.45,43,224.73,67.39,16.56,5.43,36,20.58,41.54,35.82,5.47,15.08-.78,38.37-9.57,53.64-10.91,18.93-33.33,23.27-54.72,17.09-80.26-23.18-160.48-46.51-240.32-71.06-29.81-9.17-44.33-36.83-37.58-64.77C1863.43,1373.56,1887.34,1356.26,1916.85,1358.07Z"/><path class="cls-1" d="M1891,1151.77c-.64,29.68-25.62,53.62-55.68,53.33-29.87-.27-54.37-24.86-54.36-54.55,0-30.71,26.14-55.88,56.91-54.81C1867.63,1096.76,1891.67,1122.12,1891,1151.77Z"/><path class="cls-1" d="M1753.21,1307.09c29.78.16,54.46,24.66,54.68,54.28a54.73,54.73,0,0,1-56.19,55.28c-30.17-.78-53.49-25.15-53.14-55.54A54.4,54.4,0,0,1,1753.21,1307.09Z"/><path class="cls-1" d="M1910.77,975.23c-30.21.44-54.87-23-55.66-52.88-.82-30.66,21.87-55.15,52.09-56.21,31.31-1.11,56.91,23.18,57.12,54.19A54,54,0,0,1,1910.77,975.23Z"/></svg>