<svg id="Camada_1" data-name="Camada 1" xmlns="http://www.w3.org/2000/svg" viewBox="0 0 2899.52 1311.64"><defs><style>.cls-1{font-size:624.62px;font-family:GillSansMT-Bold, Gill Sans MT;font-weight:700;}.cls-1,.cls-4{fill:#1e272e;}.cls-2{letter-spacing:0.21em;}.cls-3{font-size:420px;font-family:GillSansMT, Gill Sans MT;font-weight:400;letter-spacing:0.25em;}.cls-3,.cls-5{fill:#1f4d80;}</style></defs><text class="cls-1" transform="translate(26.13 503.27)">TEC<tspan class="cls-2" x="1327.32" y="0">H</tspan><tspan class="cls-3"><tspan x="24.76" y="330">ORDER</tspan></tspan></text><circle class="cls-4" cx="473.55" cy="1063.67" r="66.42"/><circle class="cls-4" cx="1493.29" cy="1063.67" r="66.42"/><circle class="cls-5" cx="983.42" cy="1063.67" r="93.46"/><path class="cls-4" d="M2406.19,1143.53c-141-43.76-273.46-108.91-409.87-164.12-59.54-24.1-91.89-74-99.56-137.56-3.32-27.43-.56-55.59-.56-86.41,10,2.65,15.28,3.63,20.25,5.4Q2120.35,833.47,2324.3,906c12.6,4.45,15.86,10.08,16.81,23.64,1.77,25.23,4.48,51.54,13.38,74.9,22.58,59.32,91.42,79.43,144.61,44.56a169.24,169.24,0,0,0,64.12-76.74c20.37-48.88,38.09-99,54.47-149.38,50.78-156.21,100.43-312.79,150.47-469.24,9.26-28.94,8.42-30.19-20.69-34.9q-219.27-35.54-438.53-71.07c-29-4.69-29-4.63-37.72,22.53q-69.41,216.84-138.95,433.63a91.23,91.23,0,0,1-13.3,26.5c-10.45,13.92-24.72,19.24-41.31,10.91-15.38-7.73-17.5-21.66-14.78-36.91,1-5.5,2.91-10.84,4.65-16.18q81-248.55,162.11-497c2.65-8.08,7.57-15.42,11.44-23.1h18.76c4,1.32,8,3.21,12.11,3.88q196.93,32.07,393.9,64Q2746.3,249,2826.66,262.6c29.84,5.07,36.29,16.29,27.42,46-.71,2.39-1.31,4.82-2,7.21-53.63,176.83-106.3,354-161.47,530.3-17.63,56.35-39.42,111.75-63.94,165.48-19.07,41.8-49.35,77.6-90.32,100.2-25.27,13.94-54.11,21.41-81.34,31.78Z"/><path class="cls-4" d="M2596.49,647.69c.54,25.55-22,46.59-45.79,40.41-58.59-15.19-116.84-31.76-174.89-48.93-20-5.93-29.92-27.33-24.53-46.59,5.68-20.31,25.56-33.58,46.27-28.06,57.29,15.26,114.32,31.51,171.3,47.88C2586.43,617.45,2594.9,630.7,2596.49,647.69Z"/><path class="cls-4" d="M2449.73,403.65c30.24,7.05,65.43,15.2,100.6,23.45,22.45,5.26,44.93,10.45,67.29,16.08,26.38,6.64,38.91,24.62,33.54,47.31s-24.95,33.6-50.85,27.59c-54.65-12.69-109.29-25.41-163.79-38.73-22.32-5.45-34.07-23.6-30.59-44.49C2409,416.52,2425.13,403.44,2449.73,403.65Z"/><path class="cls-4" d="M2336.51,718c2.83.59,7.19,1.18,11.36,2.4,52.61,15.47,105.48,30.15,157.56,47.25,11.61,3.81,25.26,14.43,29.13,25.11s-.55,26.91-6.72,37.61c-7.64,13.27-23.36,16.32-38.36,12C2433.21,826.1,2377,809.75,2321,792.53c-20.9-6.43-31.08-25.82-26.35-45.41C2299.05,728.86,2315.82,716.74,2336.51,718Z"/><path class="cls-4" d="M2318.41,573.36c-.45,20.81-18,37.59-39,37.39a38.56,38.56,0,0,1-38.11-38.25c0-21.53,18.32-39.18,39.9-38.43A38.89,38.89,0,0,1,2318.41,573.36Z"/><path class="cls-4" d="M2221.77,682.26c20.88.11,38.18,17.28,38.34,38a38.33,38.33,0,1,1-38.34-38Z"/><path class="cls-4" d="M2332.24,449.58a38.16,38.16,0,0,1-39-37.08c-.57-21.49,15.34-38.66,36.53-39.41a38.29,38.29,0,0,1,40.05,38A37.87,37.87,0,0,1,2332.24,449.58Z"/></svg>