<svg id="Camada_1" data-name="Camada 1" xmlns="http://www.w3.org/2000/svg" viewBox="0 0 2899.52 1311.64"><defs><style>.cls-1{font-size:624.62px;font-family:GillSansMT-Bold, Gill Sans MT;font-weight:700;}.cls-1,.cls-4{fill:#fff;}.cls-2{letter-spacing:0.21em;}.cls-3{font-size:420px;font-family:GillSansMT, Gill Sans MT;font-weight:400;letter-spacing:0.25em;}.cls-3,.cls-5{fill:#3f9bff;}</style></defs><text class="cls-1" transform="translate(17.19 503.27)">TEC<tspan class="cls-2" x="1327.32" y="0">H</tspan><tspan class="cls-3"><tspan x="24.76" y="330">ORDER</tspan></tspan></text><circle class="cls-4" cx="464.61" cy="1063.67" r="66.42"/><circle class="cls-4" cx="1484.34" cy="1063.67" r="66.42"/><circle class="cls-5" cx="974.48" cy="1063.67" r="93.46"/><path class="cls-5" d="M2397.25,1143.53c-141-43.76-273.46-108.91-409.87-164.12-59.54-24.1-91.89-74-99.56-137.56-3.32-27.43-.56-55.59-.56-86.41,10,2.65,15.28,3.63,20.24,5.4Q2111.41,833.47,2315.36,906c12.6,4.45,15.86,10.08,16.81,23.64,1.76,25.23,4.48,51.54,13.37,74.9,22.59,59.32,91.43,79.43,144.62,44.56a169.24,169.24,0,0,0,64.12-76.74c20.36-48.88,38.08-99,54.47-149.38,50.78-156.21,100.43-312.79,150.47-469.24,9.25-28.94,8.41-30.19-20.69-34.9Q2519.26,283.28,2300,247.75c-28.95-4.69-29-4.63-37.71,22.53q-69.41,216.84-139,433.63a91.48,91.48,0,0,1-13.3,26.5c-10.45,13.92-24.73,19.24-41.31,10.91-15.38-7.73-17.5-21.66-14.79-36.91,1-5.5,2.92-10.84,4.66-16.18q81-248.55,162.11-497c2.64-8.08,7.57-15.42,11.43-23.1h18.77c4,1.32,8,3.21,12.1,3.88q197,32.07,393.91,64,80.45,13.08,160.81,26.65c29.83,5.07,36.29,16.29,27.42,46-.71,2.39-1.31,4.82-2,7.21-53.63,176.83-106.3,354-161.47,530.3-17.63,56.35-39.42,111.75-63.94,165.48-19.08,41.8-49.35,77.6-90.32,100.2-25.27,13.94-54.11,21.41-81.35,31.78Z"/><path class="cls-5" d="M2587.54,647.69c.54,25.55-22,46.59-45.79,40.41-58.58-15.19-116.83-31.76-174.88-48.93-20-5.93-29.92-27.33-24.53-46.59,5.68-20.31,25.56-33.58,46.26-28.06,57.29,15.26,114.32,31.51,171.31,47.88C2577.49,617.45,2586,630.7,2587.54,647.69Z"/><path class="cls-5" d="M2440.79,403.65c30.24,7.05,65.43,15.2,100.6,23.45,22.45,5.26,44.93,10.45,67.29,16.08,26.37,6.64,38.91,24.62,33.54,47.31s-24.95,33.6-50.86,27.59c-54.64-12.69-109.28-25.41-163.78-38.73-22.32-5.45-34.07-23.6-30.6-44.49C2400,416.52,2416.19,403.44,2440.79,403.65Z"/><path class="cls-5" d="M2327.56,718c2.84.59,7.2,1.18,11.36,2.4,52.61,15.47,105.49,30.15,157.56,47.25,11.61,3.81,25.26,14.43,29.13,25.11s-.55,26.91-6.71,37.61c-7.65,13.27-23.37,16.32-38.36,12C2424.27,826.1,2368,809.75,2312,792.53c-20.9-6.43-31.08-25.82-26.35-45.41C2290.11,728.86,2306.87,716.74,2327.56,718Z"/><path class="cls-5" d="M2309.47,573.36c-.45,20.81-18,37.59-39,37.39a38.36,38.36,0,1,1,1.79-76.68C2293.05,534.79,2309.91,552.57,2309.47,573.36Z"/><path class="cls-5" d="M2212.83,682.26c20.88.11,38.18,17.28,38.34,38a38.33,38.33,0,1,1-38.34-38Z"/><path class="cls-5" d="M2323.3,449.58a38.16,38.16,0,0,1-39-37.08c-.57-21.49,15.34-38.66,36.52-39.41a38.3,38.3,0,0,1,40.06,38A37.88,37.88,0,0,1,2323.3,449.58Z"/></svg>