<svg id="Camada_1" data-name="Camada 1" xmlns="http://www.w3.org/2000/svg" xmlns:xlink="http://www.w3.org/1999/xlink" viewBox="0 0 2917.31 467.12"><defs><style>.cls-1{font-size:150px;font-family:GillSansMT-Bold, Gill Sans MT;font-weight:700;}.cls-1,.cls-4{fill:#1e272e;}.cls-2{letter-spacing:0.21em;}.cls-3{fill:#1f4d80;font-family:GillSansMT, Gill Sans MT;font-weight:400;letter-spacing:0.22em;}</style><symbol id="techdinner" data-name="techdinner" viewBox="0 0 1319.59 174.05"><text class="cls-1" transform="translate(0 126.15)">TEC<tspan class="cls-2" x="318.75" y="0">H</tspan><tspan class="cls-3" x="475.2" y="0">ORDER</tspan></text><path class="cls-4" d="M1255.72,146c-20-6.19-38.68-15.41-58-23.22-8.42-3.41-13-10.47-14.08-19.45-.47-3.88-.08-7.87-.08-12.22,1.42.37,2.17.51,2.87.76q28.83,10.28,57.68,20.53c1.79.63,2.25,1.42,2.38,3.34a37.71,37.71,0,0,0,1.89,10.6c3.2,8.38,12.93,11.23,20.46,6.3a24,24,0,0,0,9.07-10.86c2.88-6.91,5.38-14,7.7-21.12,7.18-22.1,14.21-44.25,21.28-66.37,1.31-4.1,1.19-4.27-2.92-4.94q-31-5-62-10c-4.09-.67-4.1-.66-5.33,3.18Q1226.8,53.16,1217,83.83a12.64,12.64,0,0,1-1.88,3.74c-1.48,2-3.49,2.73-5.84,1.55-2.18-1.1-2.48-3.07-2.09-5.22a16.63,16.63,0,0,1,.66-2.29q11.45-35.16,22.93-70.3A25.39,25.39,0,0,1,1232.36,8H1235a10.63,10.63,0,0,0,1.71.55q27.86,4.54,55.71,9.05,11.38,1.84,22.75,3.77c4.22.71,5.13,2.3,3.88,6.5-.1.34-.19.68-.29,1-7.59,25-15,50.06-22.84,75a202.39,202.39,0,0,1-9,23.41,30.21,30.21,0,0,1-12.78,14.17c-3.57,2-7.65,3-11.5,4.5Z"/><path class="cls-4" d="M1282.63,75.87c.08,3.62-3.11,6.59-6.47,5.72-8.29-2.15-16.53-4.49-24.74-6.92a5.32,5.32,0,0,1-3.47-6.59,5.41,5.41,0,0,1,6.54-4c8.11,2.16,16.17,4.46,24.23,6.77A5.27,5.27,0,0,1,1282.63,75.87Z"/><path class="cls-4" d="M1261.87,41.36l14.23,3.31c3.18.75,6.36,1.48,9.52,2.28,3.73.94,5.5,3.48,4.75,6.69s-3.53,4.75-7.2,3.9c-7.73-1.79-15.46-3.59-23.16-5.47a5.38,5.38,0,0,1-4.33-6.3C1256.11,43.18,1258.39,41.33,1261.87,41.36Z"/><path class="cls-4" d="M1245.86,85.82c.4.08,1,.17,1.61.34,7.44,2.19,14.92,4.26,22.28,6.68a7.05,7.05,0,0,1,4.12,3.55c.54,1.5-.08,3.81-.95,5.32-1.08,1.88-3.3,2.31-5.42,1.7-8-2.3-15.92-4.61-23.84-7a5.28,5.28,0,0,1-3.72-6.42A5.51,5.51,0,0,1,1245.86,85.82Z"/><path class="cls-4" d="M1243.3,65.36A5.46,5.46,0,1,1,1238,59.8,5.46,5.46,0,0,1,1243.3,65.36Z"/><path class="cls-4" d="M1229.63,80.76a5.48,5.48,0,0,1,5.42,5.39,5.42,5.42,0,1,1-5.42-5.39Z"/><path class="cls-4" d="M1245.26,47.85a5.38,5.38,0,0,1-5.52-5.24A5.32,5.32,0,0,1,1244.9,37a5.41,5.41,0,0,1,5.67,5.37A5.35,5.35,0,0,1,1245.26,47.85Z"/></symbol></defs><use width="1319.59" height="174.05" transform="translate(80.45 53.57) scale(2.09)" xlink:href="#techdinner"/></svg>